<?xml version="1.0" encoding="utf-8"?>
<!-- Generator: Adobe Illustrator 21.0.0, SVG Export Plug-In . SVG Version: 6.00 Build 0)  -->
<svg version="1.1" id="Lager_1" xmlns="http://www.w3.org/2000/svg" xmlns:xlink="http://www.w3.org/1999/xlink" x="0px" y="0px"
	 viewBox="0 0 798 1000" style="enable-background:new 0 0 798 1000;" xml:space="preserve">
<style type="text/css">
	.st0{fill:#020203;}
</style>
<g>
	<path class="st0" d="M302.5,625.7c0.7,0,1.3-0.1,2-0.2c4.7-1,7.6-5.2,6.6-9.5c-6.3-24.8,27.4-65.6,41-79.2
		c3.2-3.2,2.9-8.2-0.7-11.2c-3.6-2.9-9.1-2.6-12.3,0.6c-2.2,2.2-54.7,55.5-45,93.3C294.9,623.2,298.5,625.7,302.5,625.7z"/>
	<path class="st0" d="M487.8,616c-1.1,4.3,1.8,8.5,6.6,9.5c0.7,0.1,1.3,0.2,2,0.2c4,0,7.6-2.5,8.5-6.1c9.7-37.8-42.8-91.1-45-93.3
		c-3.2-3.2-8.8-3.5-12.3-0.6c-3.6,2.9-3.9,7.9-0.7,11.2C460.4,550.4,494.1,591.2,487.8,616z"/>
	<path class="st0" d="M328.9,603.3c-1,4.3,2,8.5,6.7,9.4c1.8,0.4,30.9,5.8,67.1,5.8c18.8,0,39.4-1.5,59.3-5.9c4.7-1,7.5-5.3,6.4-9.6
		c-1.2-4.2-5.9-6.8-10.6-5.8c-54,12.1-117.9,0.1-118.5-0.1C334.5,596.3,329.9,599.1,328.9,603.3z"/>
	<path class="st0" d="M415.9,397.7c-4.5,1.6-6.8,6.1-5,10.2c1.3,3.1,4.6,5.1,8.2,5.1c1,0,2.1-0.2,3.1-0.5
		c0.5-0.2,48.4-16.4,103.4-4.6c4.7,1,9.4-1.6,10.5-5.9c1.1-4.3-1.8-8.5-6.5-9.5C469.4,379.5,418.1,397,415.9,397.7z"/>
	<path class="st0" d="M412.4,633.6h-32.5c-4.8,0-8.7,3.5-8.7,7.9s3.9,7.9,8.7,7.9h32.5c4.8,0,8.7-3.5,8.7-7.9
		S417.2,633.6,412.4,633.6z"/>
	<ellipse class="st0" cx="306.1" cy="460" rx="13.1" ry="11.9"/>
	<ellipse class="st0" cx="474.4" cy="460" rx="13.1" ry="11.9"/>
	<path class="st0" d="M154.2,463.9c9.7,21.4,18.1,41.1,22.8,65.5c0.3,1.5,0.6,3.3,0.9,5.3c1.8,11.9,4.4,29.8,18.3,39.2
		c5.7,3.9,12.5,5.8,20.3,5.8c0.6,0,1.3-0.1,1.9-0.1c18.5,51,51.5,110.5,121.4,137.5c17.2,6.6,39.1,9.8,60.9,9.8
		c23.1,0,46.1-3.7,63-11c14.5-6.3,28.7-12.2,42.1-22.4c42.7-32.4,64.6-76.1,76-122.6c1.9-0.9,3.7-1.9,5.7-2.8
		c8.8-3.9,19.8-8.7,22.4-22.2c0.8-4.4,1.5-9,2.3-13.6c2-13.2,4.1-26.8,10.3-37.8c2.3-4.1,4.8-8.1,7.3-12.1
		c9.1-14.7,18.5-30,19.8-48.1c0.9-12.2-3.8-22.6-12.3-27.9c1.9-29.3,4.1-89.6-5.8-131.4c-10.5-44.3-53.2-73.2-74.5-85.1
		c-2.1-1.2-4.7-0.6-6,1.4l-5.4,7.8c-8.9,12.9-7.9,30.1,2.4,41.9c11,12.6,20.3,27.1,24.6,44.1c5.7,22.6,6.4,85.3,5.5,137.4l-25.7,8.8
		c0.1-4.4-1.6-8.8-4.8-12.1c-3.7-3.7-9-5.9-14.6-5.9H426.8c-5.6,0-10.9,2.1-14.6,5.9c-1.5,1.5-2.6,3.3-3.4,5.2H393
		c-4-8.9-13.7-20.6-37.1-28.6c-38.2-13.1-96.1-4.7-98.5-4.4c-4.8,0.7-8,4.8-7.2,9.1c0.8,4.3,5.3,7.2,10,6.5
		c0.6-0.1,55.6-8.1,89.5,3.5c2.2,0.8,4.2,1.5,6.1,2.3c-0.5,0-1-0.1-1.5-0.1h-106c-5.6,0-10.9,2.1-14.6,5.9
		c-3.6,3.7-5.3,8.6-4.7,13.5l-21.6-10.9c-1-25.2-1-49.9-0.5-73.3c0.5-25.1,5.2-87.7,37.6-125.5c28.5-33.3,73.8-54.7,124.3-58.7
		c5.8-0.5,11.6-0.7,17.4-0.7c45.2,0,88,14.1,119.4,39.9l0,0c5.6,4.6,14,3.4,18.1-2.6l12.9-18.6c1.8-2.5,1.5-6-0.8-8.2
		c-35.1-33.4-86-52-145.4-52.7c-76.2-0.9-152.2,28.8-194.4,75.9c-31.9,35.6-57.9,101-44.1,137.9c9,24.1,16.5,51.8,20.7,68.5
		c-6.6-0.8-14.1,0.2-21.7,4.9c-18.9,11.8-4.4,40.7,1.7,53C153.4,462.2,153.9,463.2,154.2,463.9z M593.9,473.2
		c0.1-1.5,0.4-11.8,0.8-26.9c1.4-1.8,2.9-3.6,4.3-5.5c5.3-6.9,10.3-13.5,16.9-18.4c2-1.5,7.2-4.9,10.7-3.2c3.1,1.4,5.9,6.8,5.3,14.2
		c-1.1,14.6-9.2,27.6-17.7,41.5c-2.6,4.2-5.2,8.4-7.6,12.7c-7.5,13.4-9.8,28.3-12,42.8c-0.7,4.4-1.3,8.8-2.2,13.1
		c-0.7,3.6-2.5,5.6-6.5,7.8C590.9,525.1,593,498.7,593.9,473.2z M426.8,426.6h105.9c2.9,0,4.9,2.1,4.6,4.7l-7.5,54.1
		c-0.4,2.6-3,4.7-5.9,4.7h-88.4c-2.9,0-5.5-2.1-5.9-4.7l-7.5-54.1C421.9,428.7,423.9,426.6,426.8,426.6z M372.9,424.4h-0.5
		c-0.1-0.3-0.3-0.7-0.5-1C372.3,423.7,372.7,424,372.9,424.4z M248.3,426.1h105.9c2.9,0,4.9,2.1,4.6,4.7l-7.5,54.1
		c-0.4,2.6-3,4.7-5.9,4.7h-88.4c-2.9,0-5.5-2.1-5.9-4.7l-7.5-54.1C243.4,428.2,245.5,426.1,248.3,426.1z M231.9,452.4l4.7,34.2
		c1.3,9.2,10.3,16.4,20.5,16.4h88.4c10.2,0,19.2-7.2,20.5-16.4l6.8-48.9h4.9c0.1,2.5,0,5.3-0.5,8.4l-6,50.5
		c-1.5,7.9-5.8,34.3,5.1,44.9c3.8,3.7,9.5,5.7,17.1,6c0.6,0,1.1,0,1.7,0c14.3,0,34.3-5.9,40.2-10.8c3.4-2.9,3.5-7.5,0.5-10.7
		c-3-3.2-8.5-3.6-12.2-1c-5.6,3.9-30,9.1-34.4,5.8c-3-3-3.4-17.9-0.6-32l6.3-53.2l0.1-7.9h13.4l6.8,49.4
		c1.3,9.2,10.3,16.4,20.5,16.4H524c10.2,0,19.2-7.2,20.5-16.4l5.3-38.1l27.7-9.4c-0.3,12.3-0.6,23.6-1,33
		c-2.9,74.8-14.9,158.1-82,208.9c-12.3,9.3-25.2,14.5-38.4,20.2c-28,12.1-79.3,12.5-109.6,0.9c-54.7-21.1-92.1-65.9-117.8-146
		c-11.8-36.8-17.5-76.2-20.1-115.1L231.9,452.4z M160.9,421c9.1-5.6,16.5-0.1,18,1.2c0.6,0.5,1.4,0.9,2.1,1.2
		c0.2,0.2,0.3,0.4,0.5,0.5l8.9,5.7c2.2,44,8,89.2,21.6,131.4c0.3,0.9,0.6,1.9,0.9,2.8c-2.4-0.4-4.4-1.2-6.2-2.3
		c-8-5.5-10.1-19.5-11.5-28.7c-0.3-2.2-0.6-4.2-1-5.9c-5-26-14.1-47.4-23.8-68.8c-0.4-0.8-1-2-1.7-3.4
		C155.5,428.1,158.9,422.3,160.9,421z"/>
	<path class="st0" d="M129.7,832.4c-1.6-0.2-3.5-0.3-5.7-0.3h-14.9v35.8h19.3c4.6,0,8.2-1,10.8-3c1.8-1.4,3.4-3.2,4.7-5.4
		c1.3-2.2,2-5.2,2-8.8c0-2.1-0.3-4-0.8-5.8c-0.5-1.8-1.3-3.4-2.2-4.7c-0.9-1.4-2-2.5-3.2-3.5c-0.7-0.6-1.5-1.2-2.4-1.7
		c-0.9-0.5-2-1-3.3-1.4C132.7,833,131.3,832.7,129.7,832.4z M131.8,858.5c-2.1,1.3-4.5,2-7.3,2h-4.6v-21.2h4.6
		c1.6,0,3.2,0.3,4.8,0.8c1.6,0.6,2.9,1.6,4,3.3c1.1,1.6,1.7,3.9,1.7,6.8C134.9,854.4,133.8,857.1,131.8,858.5z"/>
	<path class="st0" d="M182.7,849.1c0,2.4-0.3,4.3-1,5.8c-0.7,1.5-1.6,2.7-2.9,3.4c-1.2,0.7-2.6,1.1-4.2,1.1c-1.7,0-3.1-0.4-4.3-1.1
		c-1.2-0.7-2.2-1.8-2.8-3.4c-0.7-1.5-1-3.5-1-5.9v-17h-10.8v19.8c0,4,1,7.2,2.9,9.7c1.9,2.5,4.3,4.2,7.2,5.3c2.9,1,5.8,1.6,8.8,1.6
		c2.2,0,4.3-0.3,6.5-0.8s4.2-1.5,6.1-2.7c1.9-1.3,3.4-3,4.5-5.1c1.1-2.2,1.7-4.8,1.7-7.8v-19.8h-10.8V849.1z"/>
	<path class="st0" d="M225.5,848.8c-1.7-1-3.9-2.2-6.6-3.5c-1.6-0.7-2.6-1.4-3.2-1.9c-0.6-0.5-0.9-1.1-0.9-1.8
		c0-0.8,0.3-1.4,0.9-1.9c0.6-0.5,1.6-0.8,2.9-0.8c2.1,0,4,0.4,5.8,1.2c1.8,0.8,3.4,1.8,4.9,2.8v-8.4c-0.4-0.3-1.2-0.7-2.3-1.1
		c-1.1-0.5-2.5-0.9-4.2-1.3c-1.7-0.4-3.5-0.6-5.5-0.6c-2.8,0-5.2,0.5-7.1,1.4s-3.4,2.2-4.3,3.7c-0.9,1.6-1.4,3.3-1.4,5.2
		c0,2,0.5,3.7,1.4,5.2c0.9,1.5,2.1,2.7,3.6,3.7c1.5,1,3.2,1.9,5.2,2.7c1.8,0.7,3.1,1.4,4.1,2.1c0.9,0.7,1.4,1.5,1.4,2.4
		c0,0.5-0.3,1.1-0.8,1.7c-0.5,0.6-1.7,0.9-3.6,0.9c-2,0-3.9-0.4-5.6-1.1c-1.7-0.7-3.5-1.7-5.3-2.8v8.8c1.9,0.8,3.8,1.5,5.6,1.9
		c1.8,0.4,3.2,0.7,4.3,0.8c1.1,0.1,2,0.1,2.7,0.1c2.6,0,5-0.4,7.1-1.3c2-0.9,3.6-2.1,4.8-3.8c1.1-1.6,1.7-3.6,1.7-5.8
		c0-2-0.5-3.7-1.4-5.1C228.4,851.1,227.1,849.9,225.5,848.8z"/>
	<polygon class="st0" points="277.3,832.1 265.6,832.1 252.6,848.1 252.6,832.1 241.8,832.1 241.8,867.9 252.6,867.9 252.6,851.1 
		266.3,867.9 279.5,867.9 264,848.8 	"/>
	<path class="st0" d="M318.8,837.1c-1.7-1.7-3.8-3-6.4-4c-2.6-1-5.5-1.5-8.8-1.5c-4.4,0-8.2,0.9-11.3,2.6c-3.1,1.7-5.3,4-6.8,6.8
		c-1.5,2.8-2.2,5.8-2.2,9c0,3.2,0.7,6.2,2.2,9c1.5,2.8,3.8,5.1,6.8,6.8c3.1,1.7,6.8,2.6,11.2,2.6c4.4,0,8.1-0.8,11.1-2.5
		s5.3-3.9,6.9-6.7c1.5-2.8,2.3-5.9,2.3-9.2c0-2.5-0.4-4.8-1.3-7C321.7,840.7,320.5,838.7,318.8,837.1z M311.8,854.7
		c-0.7,1.4-1.8,2.5-3.2,3.3c-1.4,0.8-3.1,1.2-5.1,1.2c-2.9,0-5.1-0.8-6.8-2.5c-1.7-1.7-2.5-3.9-2.5-6.7c0-2.7,0.8-5,2.5-6.6
		s3.9-2.5,6.8-2.5c1.5,0,2.9,0.2,4,0.7s2.1,1.1,2.9,1.9c0.8,0.8,1.4,1.8,1.8,2.9c0.4,1.1,0.6,2.3,0.6,3.7
		C312.9,851.8,312.5,853.3,311.8,854.7z"/>
	<polygon class="st0" points="392.9,851.9 384.5,832.1 376.8,832.1 368.3,851.9 360.8,832.1 349.7,832.1 364.8,868.4 371.1,868.4 
		380.7,847.3 390,868.4 396.2,868.4 411.7,832.1 400.7,832.1 	"/>
	<path class="st0" d="M429,832.1l-15.8,35.8h11.1l3-7.3h15.6l2.9,7.3h11.1l-15.8-35.8H429z M429.7,854.4l5.3-13.1l5.2,13.1H429.7z"
		/>
	<path class="st0" d="M484.9,848.8c-1.7-1-3.9-2.2-6.6-3.5c-1.5-0.7-2.6-1.4-3.2-1.9c-0.6-0.5-0.9-1.1-0.9-1.8
		c0-0.8,0.3-1.4,0.9-1.9s1.6-0.8,2.9-0.8c2,0,4,0.4,5.8,1.2c1.8,0.8,3.4,1.8,4.9,2.8v-8.4c-0.4-0.3-1.2-0.7-2.3-1.1
		c-1.1-0.5-2.5-0.9-4.2-1.3c-1.7-0.4-3.5-0.6-5.5-0.6c-2.8,0-5.2,0.5-7.1,1.4c-1.9,0.9-3.4,2.2-4.3,3.7c-1,1.6-1.4,3.3-1.4,5.2
		c0,2,0.5,3.7,1.4,5.2c0.9,1.5,2.1,2.7,3.6,3.7c1.5,1,3.2,1.9,5.2,2.7c1.8,0.7,3.1,1.4,4.1,2.1c0.9,0.7,1.4,1.5,1.4,2.4
		c0,0.5-0.3,1.1-0.8,1.7c-0.5,0.6-1.7,0.9-3.6,0.9c-2,0-3.9-0.4-5.6-1.1c-1.7-0.7-3.5-1.7-5.3-2.8v8.8c1.9,0.8,3.8,1.5,5.6,1.9
		c1.8,0.4,3.2,0.7,4.3,0.8c1.1,0.1,2,0.1,2.7,0.1c2.7,0,5-0.4,7.1-1.3c2.1-0.9,3.6-2.1,4.8-3.8c1.1-1.6,1.7-3.6,1.7-5.8
		c0-2-0.5-3.7-1.4-5.1C487.8,851.1,486.5,849.9,484.9,848.8z"/>
	<polygon class="st0" points="547.7,845.2 531.4,845.2 531.4,832.1 520.6,832.1 520.6,867.9 531.4,867.9 531.4,853.9 547.7,853.9 
		547.7,867.9 558.5,867.9 558.5,832.1 547.7,832.1 	"/>
	<polygon class="st0" points="581.9,853 597,853 597,845.8 581.9,845.8 581.9,839.3 597.7,839.3 597.7,832.1 571.2,832.1 
		571.2,867.9 598.1,867.9 598.1,860.7 581.9,860.7 	"/>
	<path class="st0" d="M637.1,854.5c-0.7-0.9-1.7-1.7-2.9-2.4c1-0.5,1.8-1.1,2.6-1.6c0.8-0.6,1.5-1.5,2.2-2.7c0.7-1.3,1-2.8,1-4.6
		c0-1.6-0.4-3.2-1.3-4.9c-0.8-1.7-2.2-3.2-4.1-4.4c-1.9-1.2-4.3-1.8-7.3-1.8h-18.4v35.8h10.8v-14h1.2c1.2,0,2.3,0.2,3,0.5
		c0.8,0.3,1.6,1,2.4,2.1c0.8,1.1,1.8,2.8,2.8,5.1l2.8,6.4h11.6l-3.6-7.8C638.8,857.3,637.8,855.4,637.1,854.5z M627.6,846.7
		c-1,0.6-2.8,0.9-5.4,0.9h-2.3V839h2.3c2.4,0,4.2,0.3,5.3,1c1.1,0.7,1.6,1.8,1.6,3.5C629.1,845,628.6,846.1,627.6,846.7z"/>
	<polygon class="st0" points="679.4,860.7 663.2,860.7 663.2,853 678.2,853 678.2,845.8 663.2,845.8 663.2,839.3 678.9,839.3 
		678.9,832.1 652.4,832.1 652.4,867.9 679.4,867.9 	"/>
	<path class="st0" d="M786.9,9.5H123.6v0c-1.8,0-3.5,0.7-4.8,2L10.9,119.4c-1.3,1.3-2,3.1-2,4.8h0v862.5c0,2.8,2.3,5.1,5.1,5.1
		h772.9c2.8,0,5.1-2.3,5.1-5.1V14.6C792,11.8,789.7,9.5,786.9,9.5z M116.8,32.9v84.5H32.3L116.8,32.9z M778.3,978.2H22.6V131.1
		h101.1c3.8,0,6.9-3.1,6.9-6.9V23.2h647.8V978.2z"/>
</g>
</svg>
